<?xml version="1.0" encoding="utf-8"?>
<!-- Generator: Adobe Illustrator 21.0.2, SVG Export Plug-In . SVG Version: 6.00 Build 0)  -->
<svg version="1.1" xmlns="http://www.w3.org/2000/svg" xmlns:xlink="http://www.w3.org/1999/xlink" x="0px" y="0px"
	 viewBox="0 0 94.8 148.6" style="enable-background:new 0 0 94.8 148.6;" xml:space="preserve">
<style type="text/css">
	.st0{display:none;}
	.st1{fill:#FC994F;}
	.st2{display:inline;}
	.st3{fill:#56C110;}
	.st4{display:inline;fill:none;stroke:#030084;stroke-width:2;stroke-miterlimit:10;}
	.st5{fill:none;stroke:#000000;stroke-width:2;stroke-miterlimit:10;}
	.st6{display:inline;fill:none;stroke:#000000;stroke-miterlimit:10;}
	.st7{fill:none;stroke:#000000;stroke-miterlimit:10;}
	.st8{fill:none;stroke:#030084;stroke-width:2;stroke-miterlimit:10;}
	.st9{fill:#2D2D2D;}
	.st10{fill:#020202;}
	.st11{fill:none;stroke:#FCFCFC;stroke-miterlimit:10;}
	.st12{fill:#FDFDFF;}
	.st13{fill:#F969C9;stroke:#F969C9;stroke-width:0.5;stroke-miterlimit:10;}
</style>
<g id="Layer_1" class="st0">
	<path class="st1" d="M91.9,75c-1-22.9-2.1-45.9-2.8-68.8c-0.1-4.7-2-5.5-5.9-5.5C60.5,1.1,37.7,1.5,14.9,1.8
		C10.8,1.9,6.6,2.1,2.5,1.9C-1.1,1.7-2,3.2-2.1,6.5C-2.5,17.3-1,28.1-0.5,38.9C0.8,69.3,3,99.7,2.1,130.1c-0.1,4.7-0.1,9.3,0,14
		c0.1,1.7,0.1,3.4,0,4.2c0,0.7,1.5,1,1.8,1c22.4-1.1,83-0.1,85.7,0s1.7-3,2.1-9.9C93,117.9,92.8,96.4,91.9,75z"/>
	<g id="Layer_8" class="st2">
		<g>
			<path class="st3" d="M47.7,69.6"/>
			<g>
				<path class="st3" d="M47.7,70.1c0.6,0,0.6-1,0-1C47.1,69.1,47.1,70.1,47.7,70.1L47.7,70.1z"/>
			</g>
		</g>
		<g>
			<path class="st3" d="M47.8,69.2c-0.2-0.2-0.6,0.1-0.6,0.4c0.1,0.3,0.5,0.4,0.7,0.2c0.2-0.2,0.3-0.5,0.2-0.8
				c-0.2,0.3,0.3,0.7,0.6,0.4s0.1-0.7-0.3-0.8c-0.3,0-0.6,0.3-0.6,0.6c0,0.3,0.2,0.6,0.5,0.8c0.1,0.1,0.2,0.1,0.3,0.1
				c0.4,0,0.7-0.6,0.4-1C48.7,68.9,48.2,68.9,47.8,69.2c-0.2,0.4-0.3,0.8-0.3,1.3c0.6-0.2,0.9-0.9,0.7-1.5c-0.6-0.3-1.3,0.6-1,1.1
				c0.4,0.6,1.4,0.3,1.5-0.4c0.1-1.1-1.3-0.8-1.8-0.3c0.2-0.2,0.4-0.5,0.5-0.8c-0.3,0.2-0.6,0.3-0.8,0.5c0.1-0.2,0.2-0.4,0.3-0.6
				c-0.2,0.2-0.4,0.4-0.6,0.6c0.1-0.1,0.1-0.3,0.2-0.4c-0.2,0.5-0.6,1-1.1,1.3c0.1-0.6,0.5-1.1,1.1-1.3c-0.2,0.5-0.5,1-0.9,1.4
				c0.6-1.1,1.8-1.9,3-1.9c-0.9-0.2-1.8,0.1-2.4,0.7c0.1-0.4,0.3-0.7,0.7-0.9c-0.4,0.2-0.7,0.5-0.9,0.8c0.6-0.4,1.3-0.7,2-0.9
				c-1,0.3,1.6,0.3,1.7,0.3c0.7,0.4,1.2,0.4,0.2,1.3c0.1-0.2,0.3-0.4,0.5-0.6C49.7,70.1,48.4,71,47,71c-0.1-0.1,0-0.3,0.1-0.3
				c1.1-0.8,2.3-1.5,3.4-2.3c-0.6,1-1.4,2-2.4,2.8c-0.1-0.6,0-1.2,0.3-1.8c-0.9,0-1.7,0.4-2.3,1c1.2-1.1,2.7-1.8,4.3-2
				c0,0.7-0.3,1.4-0.8,1.9"/>
			<g>
				<path class="st3" d="M47.9,68.7c-0.9-0.3-1.7,0.9-0.8,1.5c1,0.7,1.8-0.4,1.6-1.3c-0.1-0.5-0.9-0.5-1,0c-0.3,1.4,1.9,1.4,1.6,0.1
					c-0.3-1.5-2.5-0.5-1.9,0.9c0.6,1.3,2.8,0.9,2.2-0.6C49.3,68.5,48.6,68.4,47.9,68.7c-0.7,0.2-1,1-0.9,1.8c0,0.4,0.4,0.6,0.8,0.4
					c0.9-0.4,1.6-2.6,0.1-2.5c-1.1,0.1-1.8,1.7-0.7,2.3c1,0.6,2.3-0.5,1.9-1.6c-0.4-1.1-1.9-0.8-2.5-0.1c0.2,0.2,0.5,0.5,0.7,0.7
					C47.6,69.4,47.7,69.1,47.9,68.7c0-0.4-0.4-0.8-0.8-0.6c-0.3,0.2-0.6,0.3-0.8,0.5c0.2,0.2,0.5,0.5,0.7,0.7
					c0.1-0.2,0.2-0.4,0.3-0.6c0.2-0.5-0.4-1.1-0.8-0.6c-0.1,0.2-0.3,0.4-0.5,0.5c0.2,0.2,0.5,0.4,0.7,0.6c0.1-0.1,0.1-0.3,0.2-0.4
					c0.2-0.5-0.7-0.9-0.9-0.4c-0.2,0.5-0.5,0.8-0.9,1.2c0.2,0.2,0.5,0.4,0.7,0.6c0.1-0.5,0.4-0.8,0.9-1c-0.2-0.2-0.5-0.5-0.7-0.7
					c-0.2,0.5-0.5,0.9-0.8,1.3c0.3,0.2,0.5,0.4,0.8,0.6c0.6-1,1.5-1.6,2.6-1.7c0.5,0,0.7-0.9,0.1-1c-1.1-0.2-2.1,0.1-2.9,0.9
					c0.3,0.2,0.6,0.3,0.8,0.5c0.2-0.2,0.3-0.4,0.5-0.6c0.5-0.4,0-1.2-0.5-0.9c-0.4,0.3-0.7,0.5-1,0.9c-0.3,0.4,0.1,1.1,0.6,0.8
					c0.6-0.3,1.2-0.6,1.9-0.8c-0.1-0.3-0.2-0.6-0.3-1c-0.2,0.1-0.4,0.1-0.5,0.3c-0.1,0.1-0.1,0.4,0,0.5c0.3,0.4,0.8,0.4,1.3,0.4
					c0.3,0,0.6,0,0.9,0c0.1,0,0.2,0,0.3,0.1c0.2,0.2,0,0.1-0.3,0.3c0.3,0.2,0.5,0.4,0.8,0.6c0.1-0.2,0.3-0.4,0.5-0.6
					c-0.3-0.2-0.6-0.3-0.9-0.5c-0.6,1.1-1.5,1.8-2.8,1.9c0.1,0.1,0.3,0.2,0.4,0.2c0.2,0.4,1.4-0.6,1.6-0.8c0.6-0.4,1.1-0.8,1.7-1.1
					c-0.2-0.2-0.5-0.5-0.7-0.7c-0.6,1-1.4,1.9-2.3,2.7c0.3,0.1,0.6,0.2,0.9,0.4c-0.1-0.6,0-1.1,0.2-1.7c0.1-0.3-0.2-0.6-0.5-0.6
					c-1.1,0.1-1.9,0.4-2.7,1.2c-0.5,0.5,0.2,1.1,0.7,0.7c1.2-1,2.6-1.6,4.1-1.9c-0.2-0.2-0.4-0.3-0.6-0.5c0,0.6-0.3,1.1-0.7,1.5
					c-0.4,0.5,0.3,1.2,0.7,0.7c0.6-0.6,0.9-1.3,1-2.2c0-0.3-0.3-0.5-0.6-0.5c-1.7,0.3-3.2,1.1-4.6,2.2c0.2,0.2,0.5,0.5,0.7,0.7
					c0.6-0.6,1.2-0.9,2-0.9c-0.2-0.2-0.3-0.4-0.5-0.6c-0.3,0.6-0.3,1.2-0.3,1.9c0,0.4,0.5,0.7,0.9,0.4c0.9-0.9,1.7-1.8,2.4-2.9
					c0.3-0.4-0.3-1-0.7-0.7c-1.1,0.7-2.2,1.4-3.2,2.2c-0.4,0.3-0.8,0.6-0.4,1.1c0.1,0.1,0.3,0.3,0.4,0.2c1.6-0.1,2.9-1,3.6-2.4
					c0.3-0.6-0.5-1-0.9-0.5c-0.2,0.2-0.3,0.4-0.5,0.6c-0.4,0.5,0.4,1,0.8,0.6c0.9-0.7,1-1.6-0.2-2c-0.3-0.1-0.6-0.1-0.9-0.1
					c-0.2,0-0.5,0-0.7,0c-0.4,0-0.5-0.2-0.2,0.1c0,0.2,0,0.3,0,0.5c0,0-0.1,0.1-0.1,0.1c0.6-0.2,0.4-1.2-0.3-1
					c-0.8,0.2-1.4,0.5-2.1,0.9c0.2,0.3,0.4,0.5,0.6,0.8c0.3-0.3,0.5-0.5,0.8-0.8c-0.2-0.3-0.3-0.6-0.5-0.9c-0.5,0.3-0.7,0.7-0.9,1.2
					c-0.2,0.5,0.5,0.8,0.8,0.5c0.5-0.5,1.2-0.7,1.9-0.6c0-0.3,0.1-0.7,0.1-1c-1.5,0.1-2.7,0.9-3.5,2.2c-0.3,0.5,0.4,1.1,0.8,0.6
					c0.4-0.5,0.7-1,1-1.5c0.2-0.5-0.2-0.9-0.7-0.7c-0.7,0.3-1.1,0.9-1.3,1.6c-0.1,0.4,0.4,0.8,0.7,0.6c0.6-0.4,1-0.9,1.2-1.5
					c-0.3-0.1-0.6-0.3-0.9-0.4c-0.1,0.1-0.1,0.3-0.2,0.4c-0.2,0.4,0.4,0.8,0.7,0.6c0.3-0.2,0.5-0.4,0.7-0.7
					c-0.3-0.2-0.5-0.4-0.8-0.6c-0.1,0.2-0.2,0.4-0.3,0.6c-0.2,0.4,0.2,0.9,0.7,0.7c0.3-0.2,0.6-0.3,0.8-0.5
					c-0.2-0.2-0.5-0.4-0.7-0.6c-0.1,0.2-0.2,0.4-0.3,0.6c-0.5,0.4,0.2,1.1,0.7,0.7c0.2-0.2,0.5-0.3,0.8-0.3
					c-0.1-0.1-0.2-0.2-0.3-0.3c0.2,0.5,0,0.8-0.4,0.9c0.3,0.1,0.5,0.3,0.8,0.4c-0.1-0.5,0.1-1,0.6-1.3c-0.3,0-0.6,0-1,0
					c0,0.2,0,0.4,0,0.6C48.3,69.8,48.5,68.9,47.9,68.7L47.9,68.7z"/>
			</g>
		</g>
		<g>
			<g>
				<path class="st3" d="M50.6,69.2c0-0.2,0-0.5,0.1-0.7c-0.3,0.1-0.6,0.2-0.9,0.3c0.1,0.1,0.1,0.2,0.1,0.3c0.3,0,0.7,0.1,1,0.1
					c0-0.1,0-0.2,0-0.4c0-0.6-1-0.6-1,0c0,0.1,0,0.2,0,0.4c0,0.5,0.9,0.7,1,0.1c0.1-0.4,0-0.7-0.2-1.1c-0.3-0.5-0.9-0.2-0.9,0.3
					c0,0.2,0,0.5-0.1,0.7C49.6,69.9,50.6,69.9,50.6,69.2L50.6,69.2z"/>
			</g>
		</g>
		<g>
			<g>
				<path class="st3" d="M51,69c0-0.2,0-0.3,0-0.5c-0.3,0.1-0.6,0.2-0.9,0.4c0,0,0,0,0,0c0.3,0,0.7,0.1,1,0.1c0,0,0-0.1,0-0.1
					c0-0.6-1-0.6-1,0c0,0,0,0.1,0,0.1c0,0.6,0.9,0.7,1,0.1c0.1-0.4,0-0.7-0.3-0.9c-0.3-0.3-0.8-0.1-0.9,0.4c0,0.2,0,0.3,0,0.5
					C49.9,69.7,50.9,69.7,51,69L51,69z"/>
			</g>
		</g>
		<g>
			<g>
				<path class="st3" d="M45.8,71.2c1.7-0.2,3.7-0.7,3.9-2.7c-0.1,0.2-0.2,0.3-0.4,0.5c-0.1,0-0.1-0.1-0.2-0.1
					c0.1,0.6,1.1,0.4,1-0.3c-0.1-0.5-0.6-0.7-1-0.6c-0.2,0.1-0.3,0.2-0.4,0.5c-0.1,1.4-1.8,1.6-2.9,1.7
					C45.2,70.2,45.2,71.2,45.8,71.2L45.8,71.2z"/>
			</g>
		</g>
		<g>
			<g>
				<path class="st3" d="M50,68.6c0.1-0.5,0-0.8-0.2-1.2c-0.2,0.2-0.4,0.5-0.6,0.7c0.3,0.1,1.1,0.3,1.2,0.7c0-0.1,0-0.3,0.1-0.4
					c-0.1,0.3-0.5,0.5-0.7,0.7c-0.2,0.2-0.5,0.5-0.7,0.7c-0.5,0.4,0.2,1.1,0.7,0.7c0.7-0.6,1.2-1.3,1.7-2.2c0.2-0.3,0-0.6-0.3-0.7
					c-0.3-0.1-0.6-0.2-0.8-0.3c-0.4-0.2-0.7,0.4-0.6,0.7c0.3,0.5,0.6,1,1,1.4c0.2-0.2,0.5-0.5,0.7-0.7c-1.1-0.9-2.6-0.9-3.7,0
					c-0.5,0.4,0.2,1.1,0.7,0.7c0.6-0.6,1.6-0.6,2.3,0c0.5,0.4,1.2-0.2,0.7-0.7c-0.3-0.4-0.6-0.7-0.8-1.2c-0.2,0.2-0.4,0.5-0.6,0.7
					c0.3,0.1,0.6,0.2,0.8,0.3c-0.1-0.2-0.2-0.5-0.3-0.7c-0.4,0.7-0.9,1.4-1.5,2c0.2,0.2,0.5,0.5,0.7,0.7c0.4-0.4,0.8-0.7,1.2-1.1
					c0.3-0.3,0.6-0.5,0.5-1c-0.1-0.8-1.2-1.2-1.9-1.4c-0.4-0.1-0.8,0.4-0.6,0.7C49,68,49,68.2,49,68.4C48.9,69,49.9,69.3,50,68.6
					L50,68.6z"/>
			</g>
		</g>
		<g>
			<g>
				<path class="st3" d="M50.5,69.1c0.2,0,0.3,0.1,0.4,0.2c0.3,0.3,0.8,0.1,0.9-0.4c0-0.2,0-0.3,0-0.5c0.1-0.6-0.9-0.6-1,0
					c0,0.2,0,0.3,0,0.5c0.3-0.1,0.6-0.2,0.9-0.4c-0.3-0.2-0.5-0.4-0.9-0.5C50.2,68,49.9,69,50.5,69.1L50.5,69.1z"/>
			</g>
		</g>
	</g>
	<g id="Layer_11">
		<path class="st4" d="M28.5,90.5c-1.7,2.7-8.2,3.5-9.7,18s-0.7,20.2,4.3,23.2s3.3,4.3,12.3,5.3c19,2.1,27.5,4.5,38-0.5
			s17-15.5,17-25s6-16-11.5-23.5s-17-10.3-18.7-6.3c-1.8,4.5-10.5,7.7-10.5,7.7L46,91.7C46,91.7,30.5,92,28.5,90.5"/>
		<path class="st4" d="M31,123.5c3.7,1.5,10.8,3.2,14.8,2.5s4.3-0.8,5.8,0.5s3.3,4.7,2.3,6.8c-1,2.2-1.2,3.8-3.5,4.5
			c-2.3,0.7-8.2-0.5-9.2-0.3s-8.7-0.7-10.7-1.2s-3-1.3-4.3-2.3"/>
		<path class="st4" d="M76.4,119.3c-3.1,2.4-9.6,5.9-13.7,6.3s-4.4,0.3-5.5,2c-1.1,1.7-2,5.4-0.5,7.2c1.5,1.8,2.1,3.4,4.6,3.4
			c2.4,0,7.8-2.6,8.8-2.7c1-0.1,8.2-2.9,10-3.9s2.5-2.1,3.6-3.4"/>
	</g>
	<g id="Layer_13">
		<path class="st4" d="M78,86.5c-3-8.7-4.5-9.8-2-19.8S77.8,58,77,49c-0.9-9.7-1.5-4.3-2.2-13.2c-0.7-8.8,2.5-12.7,5.2-9.3
			s9.3,10.7,7.2,39.2c-2.3,29.7-2.3,25.7-4.2,24.7c-2.5-1.3-4.8-2-5.3-3.7C77.2,85,78,86.5,78,86.5z"/>
	</g>
	<g id="Layer_12" class="st2">
	</g>
	<g id="Layer_10" class="st2">
		<path class="st5" d="M48.1,67.2c0.7,4.1-0.4,3.3,0.7,4.1"/>
	</g>
	<g id="Layer_5" class="st2">
		<g>
			<path d="M42,82.3c0.2,1.1-0.1,2.2-0.7,3.2c-0.7,1-1.8,1.7-2.9,2c-1.1,0.3-2.1,0.4-3.2,0.4c-1.1-0.1-2.1-0.3-3.1-0.8
				c1.1-0.3,2-0.5,2.9-0.7l2.8-0.7c0.8-0.2,1.6-0.6,2.2-1.1C40.8,84,41.3,83.2,42,82.3z"/>
		</g>
	</g>
	<path class="st6" d="M27.1,74.8c2.8,1.6,5.6,0,6.7-2.4"/>
	<g id="Layer_6" class="st2">
		<path class="st7" d="M44.1,70.4c2.9,2.4,6.4,0.9,8.1-1.6"/>
	</g>
	<g id="Layer_7" class="st2">
	</g>
	<g id="Layer_9" class="st2">
	</g>
	<g id="Layer_3" class="st2">
		<path class="st8" d="M39.9,80.8c-1.5-0.8-2-1.8,0.3-2s4.3-2,3.6-0.1s-1.3,2.3-1.4,3.4C42.3,83.3,41,81.3,39.9,80.8z"/>
	</g>
	<g id="Layer_2" class="st2">
		<path class="st8" d="M26.5,57.3c13.7-4.3,17.9-2.2,20-1.8c2,0.4,4.8-7.5,7-11.3c0.6-1,3,2.5,4,9.8c0.8,5.6-0.3,5.4,2.8,10
			c2.4,3.6,1.9,7.4,2.1,10.2c0.6,8.5-6.7,12.4-12.5,15.2c-5.9,2.9-0.1,1.9-11.8,2c-12.7,0.1-17.5-4-18.8-11.7
			c-1.3-7.7,1.3-6.9,0.3-12c-0.5-2.7-8.6-14.9-6.7-15C18,52.5,26.5,57.3,26.5,57.3z"/>
	</g>
	<g id="Layer_4" class="st2">
		<g>
			<path class="st9" d="M42.5,82c1.7,1.2,3.1,1.7,5.2,1.1c2.1-0.6,3.1-2,3.5-2.6"/>
			<path d="M42.5,82c0.9,0.2,1.7,0.4,2.4,0.4c0.7,0,1.3,0,2-0.2c0.7-0.2,1.4-0.3,2.1-0.6c0.7-0.3,1.4-0.6,2.2-1.1
				c-0.1,0.9-0.6,1.8-1.3,2.4c-0.7,0.6-1.6,1.1-2.5,1.3c-0.9,0.2-2,0.2-2.9-0.3C43.6,83.5,42.9,82.8,42.5,82z"/>
		</g>
	</g>
	<path class="st6" d="M52.4,67.9c-4.7-2.5-7-0.4-7.8,2.6"/>
	<path class="st4" d="M-26,130.5"/>
	
		<image style="display:inline;overflow:visible;" width="450" height="600" xlink:href="../transform/9249984-1.jpg"  transform="matrix(0.4778 0 0 0.5346 -130.5 -213.5)">
	</image>
</g>
<g id="Layer_14">
	<path class="st10" d="M18.8,40.7c3.1,0.4,5.4,2.8,6.4,4.3c1,1.5,1.3,2.8,1.8,4.4s0,3.4,0.3,3.9c0.3,0.5-7.4-3.1-8.3-2.6
		c-1,0.5-0.7-1.1-0.7-3.8S18.5,40.7,18.8,40.7z"/>
</g>
<g id="Layer_22">
	<path class="st10" d="M54.3,73.6c-2.4,2.2-5.1,6.5-5.1,8.3c0,1.7,0.3,4.9,1.6,6.8c1.3,1.9,2.9,1.5,2.8,3.6
		c-0.1,2.1-0.2,2.4-1.3,3.8c-1.1,1.4-3.7,3.5-4.4,4.4c-0.7,0.9-2.2,2.2-1.6,3.1c0.5,0.9,0.4,2.4,2.3,2.1c1.9-0.3,2.8-0.4,4.7-2.5
		c1.9-2.1,2.4-2.5,5.1-5.5s3.9-3.4,3.5-4.6c-0.4-1.2-0.7-0.5-1.9-2.4c-1.2-1.9-1.7-1.5-0.9-3.3c0.9-1.7,0.4-1.9,2.1-3.9
		c1.6-2.1,4.3-6.7,1.9-7.6C60.8,74.8,54.3,73.6,54.3,73.6z"/>
</g>
<g id="Layer_15">
	<path class="st10" d="M8,58.9c0.2,0-3-0.3-4.6-0.4c-1.4-0.1-2.3,0-2.9,0.1c-0.5,0.1-0.7,0-0.2,1.6c0.5,1.6,0.9,3.1,1.8,4.3
		c0.9,1.3,1.5,2.8,2.5,3.7s1.6,1.6,2.3,2c0.7,0.4,0.8,0,1-0.1c0.2,0-0.1-3,0-3.6c0-0.5,0-4.6,0-5.7C7.8,59.8,7.9,58.9,8,58.9z"/>
</g>
<g id="Layer_16">
	<path class="st10" d="M20.6,48.5c-1.2,0.4-5.4,1.8-6.7,3.1c-1.4,1.2-5.6,3.8-6.4,8.4s-1,7.6-0.9,8.9c0.1,1.3,2,7.2,6.2,9.9
		s5.5,2.6,7,2.6c1.4,0,3.2,0,4.7-0.7c1.5-0.7,3.2-1,4.4-2.1s4.2-5.2,4.5-6.2c0.4-0.9,2.5-4.6,2.4-9.3c-0.1-4.7-1-8.4-4-11
		c-2.5-2.1-3.9-3.1-6.7-3.7C22.3,47.6,21.1,48.3,20.6,48.5z"/>
</g>
<g id="Layer_21">
	<path class="st11" d="M21.1,59.9c3.1-0.8,4.9-3.6,5.9-5"/>
	<path class="st11" d="M16.8,63.9c-1.9,2.7-4.8,3-6.7,3.1"/>
</g>
<g id="Layer_18">
	<path class="st12" d="M22.6,67.8c0.2-2.4,0.8-3.7,2-4.8c1.2-1.1,2.5-1.5,3.5-1.4c1,0.1,1.5-0.4,1.9,0.8c0.3,1.2,0.3,2.1-0.2,3.4
		c-0.5,1.3-2.1,2.4-3.1,2.5c-1,0.1-2.3,0.8-3.2,0.1C22.6,67.7,22.6,67.8,22.6,67.8z"/>
	<path class="st12" d="M22.7,68.1c-2.4-0.2-3.8,0.1-5.1,1.1s-1.9,2.2-2,3.2c-0.1,1-0.7,1.4,0.4,2c1.1,0.5,2,0.7,3.4,0.3
		c1.4-0.3,2.7-1.6,3-2.6s1.1-2.1,0.6-3.1C22.6,68,22.7,68.1,22.7,68.1z"/>
</g>
<g id="Layer_19">
	<path class="st13" d="M23.7,68.4c-3-0.6-5.1-0.7-3.7-2.4c1.4-1.7,2.1-2.1,2.6-2.3c0.5-0.2,0.9-0.7,0.9,0.3c0,1-0.3,2.2-0.1,3.4
		c0.2,1.2,0.2,1.2,0.2,1.2"/>
</g>
<g id="Layer_20">
</g>
<g id="Layer_17">
	<g>
		<path class="st10" d="M33.3,58.7c2.5-3.1,3.7-6.1,8.2-8.4c4.5-2.3,9.6-4,13.3-3.9C58.5,46.4,64,48,65.6,49c1.5,1,4.8,2.1,6,4.4
			c1.2,2.3,1.9,3.1,2,2.8c0-3.1-0.4-8.1,1.2-10.2c1.6-2.2,3.2-3.1,5-2.7c1.9,0.3,1.9,1.3,3.1,1.4c1.2,0.1,2.2-0.7,2.2-1.4
			c0-0.8,1.1-3.5,0.2-5.9c-0.9-2.4-2-4.6-2.5-6.5s-1.4-3.6-1.4-4.5s-0.6-1.3,1.2-5.1s1.8-3.9,3.8-5.4c2.1-1.6,2.8-1.9,3.7-2.1
			c1-0.1,1.9-0.3,2.6,0.7c0.7,1.1,1,1.3-0.2,3.5c-1.2,2.2-3.1,3.1-3.8,5s-0.9,7-0.1,9.1s3.1,4.8,2.6,7.5c-0.4,2.7-0.5,6.8-2.4,7.7
			s-2.8,1.9-5.2,2.1c-2.4,0.2-4.3,1.3-4.6,4.8c-0.3,3.5-0.8,7.4-1.7,9.6c-1,2.2,0,0.7-0.7,5.9c-0.7,5.2-1.9,8.5-2,12
			c-0.1,3.5-0.4,3.9-0.1,5s0.8,1.5,2,2.4c1.2,0.9,1,2.2,0.8,3.2S76.1,95.6,75,98c-1.1,2.4-2.9,5.5-4,6.7c-1.1,1.2-3.7,2.5-5.3,2.5
			s-2.8-1.1-3.5-1.1s-1.2-0.8-1-1.7c0.2-1,0-2.1,1.7-2.2c1.7-0.1,1.7,0.5,2.9-0.4c1.2-1,1.3-0.7,2.3-3.3c1-2.6,2-3.5,1.6-5.5
			s-2.4-4.1-4-5.6s-5.2-5.5-6.1-7.1c-0.9-1.6-6.5-3.9-9.7-4c-3.2-0.1-5.7-0.4-6.7,0.7s0.4,3.3,1.3,6.1c0.9,2.8,1.9,6.5,2.4,9.4
			c0.5,2.8,2.4,9.4,1.7,11.3c-0.7,2-0.9,2.8-2.3,2.9c-1.4,0.1-2.7,0.8-4,0.3c-1.3-0.4-1.7-0.3-1.7-2.5s0.1-2.1,1.3-2.7
			c1.2-0.7,0.9-1,0.4-3.3c-0.4-2.3-1.9-8.8-3.9-11.6s-3.9-4.3-4.3-4.3s-1.1,1.4-0.1,3.1s2.2,3.9,2.7,5.5c0.5,1.5,0.5,2.4,0.8,5.3
			c0.2,2.9,0.1,6.1-0.3,7.7c-0.4,1.6-0.3,2.5-1.9,3.2c-1.5,0.7-2.1,1.9-3.5,1.7c-1.4-0.1-1.5,0.2-3.2-1.1c-1.6-1.3-2.3-2.6-1.1-3.9
			c1.2-1.3,1-2,2.7-2.2c1.7-0.2,2.1-1,1.7-3.5c-0.3-2.5-0.1-2.4-1.5-6C29.3,89,28,80.7,24.9,77c-3.1-3.7,4.9-5.1,6-7.3
			S33.3,58.7,33.3,58.7z"/>
	</g>
</g>
</svg>
