<?xml version="1.0" encoding="utf-8"?>
<!-- Generator: Adobe Illustrator 21.0.2, SVG Export Plug-In . SVG Version: 6.00 Build 0)  -->
<svg version="1.1" id="Layer_1" xmlns="http://www.w3.org/2000/svg" xmlns:xlink="http://www.w3.org/1999/xlink" x="0px" y="0px"
	 viewBox="0 0 94.8 148.6" enable-background="new 0 0 94.8 148.6" xml:space="preserve">
<path fill="#FC994F" d="M94.1,74.3c-1-22.9-2.1-45.9-2.8-68.8c-0.1-4.7-2-5.5-5.9-5.5C62.7,0.4,39.9,0.8,17.1,1.1
	C13,1.2,8.8,1.4,4.7,1.2C1.1,1,0.2,2.5,0.1,5.8c-0.4,10.8,1.1,21.6,1.6,32.4C3,68.6,1.9,98.6,1,129c-0.1,4.7,3.2,9.7,3.3,14.4
	c0.1,1.7,0.1,3.4,0,4.2c0,0.7,1.5,1,1.8,1c22.4-1.1,83-0.1,85.7,0s1.7-3,2.1-9.9C95.2,117.2,95,95.7,94.1,74.3z"/>
</svg>
