<?xml version="1.0" encoding="utf-8"?>
<!-- Generator: Adobe Illustrator 21.0.2, SVG Export Plug-In . SVG Version: 6.00 Build 0)  -->
<svg version="1.1" id="Layer_1" xmlns="http://www.w3.org/2000/svg" xmlns:xlink="http://www.w3.org/1999/xlink" x="0px" y="0px"
	 viewBox="0 0 631.9 676.3" style="enable-background:new 0 0 631.9 676.3;" xml:space="preserve">
<style type="text/css">
	.st0{fill:#FC5EE5;}
	.st1{fill:#030084;}
	.st2{display:none;fill:#F98B30;}
	.st3{display:none;}
	.st4{display:inline;fill:#FC994F;}
	.st5{display:inline;fill:#030084;}
	.st6{fill:#F77A26;}
	.st7{fill:#BEE3FC;}
	.st8{fill:#E51AB5;}
	.st9{fill:#24D605;}
</style>
<g id="door_roof_walls_1_">
	<path id="door_roof_walls" class="st0" d="M424.8,626c0-3.2-0.5-3.3-0.9-7.2c-0.3-3.2-1.5-6.4-0.2-9.6c0-1.5,0-3.2,0-5.1
		c0-1.6,0-3.3,0-5.1c-0.1,0.1-0.2,0.1-0.3,0.2c0-16.7,0-32.9,0-49.4l0,0c-0.2-3.3-0.4-7-0.5-10.5c-0.3-0.7-0.2-1.8-0.2-2.8
		c-0.3-31.6-0.6-63.2-0.9-94.9c-0.1-6,0-12,0.1-18c0-2.3,0.3-3.7,3.7-3.7c15.1,0.2,30.2,0,45.3-0.1c1.1,0,2.5,0.3,3-1.1
		c0.5-1.5,0.6-3-0.6-4.2c-1.7-1.6-3.4-3.2-5.2-4.6c-25.8-21.1-48.8-45.2-72.9-68.2c-18-17.2-36-34.6-54-51.9
		c-6.6-6.3-12.7-13.2-18.8-20c-3.9-4.3-4.5-4.1-8.7-0.2c-24.8,22.8-46.6,48.4-70.1,72.5c-21.5,22.1-44.8,42.2-68.3,62.1
		c-3.8,3.2-7.4,6.7-11.3,9.8c-2.5,2.1-1.7,4.3-1.1,6.8c0.7,2.8,2.9,2.3,4.8,2.2c14.6-0.2,29.3-0.4,43.9-0.5c2.8,0,5.6-0.1,8.4-1.3
		c1.7,8.9,1.4,17.7,1.9,26.5c1.6,28.6,2.9,57.2,4.2,85.8c0.4,8.4,1,15.4,1.1,20.4c0.4,0.8,0,2,0,2.8c-0.1,9.3,1.6,18.5,1.3,27.8
		c0,3.3,0,6.6,0,9.9c0,0.4,0.1,0.8,0,1.2v0.1c0.3,4.5,0.4,10.2,0.4,14.3c0.2,0.8,0.2,1.8,0,3.1c0,0.6,0,1.3,0,2
		c0.4,1.6,0.4,2.7,0,3.4c0,5.3,0.1,11.5,1.1,11.6c5.4,0.2,14,3,14,0.2s-0.6-9.1-0.6-12.3c0.3-33.8-2.2-67.5-3.6-101.2
		c-1.3-30.6-3.5-61.1-5.3-91.7c-0.3-4.3-0.5-8.7-1.5-12.9c-0.8-3.5-0.3-6.1,2.5-8.3c1.2-0.9,2.4-2,3-3.3c4.1-8.2,12.1-8.2,19.5-9.6
		c2.5-0.5,3.7,1.4,5,2.6c1.5,1.4-0.9,2-1.4,3c-4,7.1-0.8,20.4,5.9,24.8c2.8,1.9,5,1.7,7.3-1c6.4-7.5,6.1-16,2.9-24.4
		c-1.1-2.8-0.7-5,0.5-6.7c1.3-1.8,3.7-0.2,5.5,0.5c2.5,1,5,1.9,7.7,2c2.2,0.1,4.1-0.5,4.8-2.7c0.7-2.3,0.4-4.8-1.3-6.6
		c-1.4-1.5-3.5-2.3-5.4-1.3c-3,1.7-6.1,3-7.9-1.1c-1.8-4,0.2-6.8,3.8-9c6.3-3.8,15.1-3.8,20.1,0.5c1.4,1.2,3.4,2,1.3,4.7
		c-1.1,1.4-0.2,4,2.8,3.7c2.5-0.2,5-0.2,7.5-0.3c3.4-0.1,7.4,0.3,4.8-5.3c-0.6-1.3,0.9-2,1.7-2.7c5.2-4.6,14.7-4.7,19.8-0.1
		c2.4,2.2,4.7,5,2.2,8.2c-2.2,2.8-5,4.7-8.9,1.7c-1.7-1.3-4.1-2.5-6.4-0.6c-1.7,1.4-1.9,3.5-1.6,5.5c0.5,2.8,2.8,3.6,5.2,4
		c2.9,0.6,5.8-0.1,8.3-1.3c3.8-1.8,7.9-1,11.8-1.7c2-0.4,4,3.6,3,5.5c-4.9,9.4-0.3,21.2,9.4,24.5c2,0.7,3.1-0.4,4.2-1.7
		c5.3-6,6.2-16.7,1.9-23.6c-2-3.3-0.9-4.6,2.8-5.5c5.7-1.5,9.4,0.9,13.1,4.6c4.3,4.4,8.8,8.7,13.7,12.4c4.1,3.1,5,6.8,5.3,11.5
		c1.4,19.9,1.2,39.9,1,59.9c-0.5,44.7,2.4,89.3,2.8,134c0.2,1.8,0.3,3.7,0.4,5.7c0.2,8-1.1,12,0.6,12.7
		C413.6,628,424.8,629.3,424.8,626z M274.2,387.2c-1.4,2.9-2.2,6.2-1.5,9.7c1.1,6.3-0.6,12.3-3.4,18.7c-4.4-6.1-3.8-12.4-3.1-18.5
		c0.4-3.6-0.6-6.6-2.6-9.3c-2-2.8-2.7-5.7,0-8c2.8-2.5,6.4-1.8,9.3,0C275.6,381.6,275.7,384.1,274.2,387.2z M368.6,383.9
		c-2.5,3.4-2.1,7-0.9,10.7c1.9,6.1,1.6,12-1.5,18.1c-5.2-4.2-7.1-9.3-6.4-15.5c0.5-4.5,1.1-8.9-2.4-13c-2-2.3-0.2-5.5,2.3-7.3
		c2.7-2,5.3-1.1,7.8,0.7C369.8,379.2,370.4,381.4,368.6,383.9z M411,389.3c-2.8-0.5-3.8-1.8-4.6-4.3c-1.6-5-5-8.3-10.3-8.9
		c-2.3-0.3-2.9-1.4-3.6-3.3c-1.9-4.9-4.6-8.9-10.4-9.5c-1.8-0.2-2.5-1.2-3.1-2.7s-1.4-3-2.4-4.4c-2.6-3.5-6.5-4.8-10.2-6.7
		c-3.4-1.8-2-8.4-6.3-9.9c-5.1-1.9-7.1-6.2-10.5-9.5c-5-4.8-11.6-8-15-14.7c-6.3-0.3-7.9-5.2-10.4-9.8c-1.8-3.3-5.6-4.6-9.6-3.7
		c-5,1.2-9.2,5.6-9.4,11c-0.2,4.1-1,5.5-5.5,5.3c-5.8-0.2-11.7,6.2-12.3,12.4c-0.2,2-0.3,2.7-2.7,2.8c-5,0.2-9.7,4.4-10.5,9.2
		c-0.5,2.7-1.5,4-4.1,4.7c-6.4,1.7-9.7,6.2-10.6,12.5c-0.4,2.6-1.4,3.6-4,4.1c-6.9,1.3-11.4,5.2-12.3,12.5c-0.3,2.5-1.6,3.1-3.9,3.4
		c-8.4,1.3-12,4.8-13.2,13.1c-0.3,2.3-1.2,2.5-3.1,2.7c-6.4,0.8-10.8,4.2-11.6,11c-0.3,2.1-1.3,2.3-3,2.4c-3.2,0.2-6.3,0.1-9.9-0.6
		c12.3-14.4,26.3-26.2,39.6-38.7c26.6-24.7,50.9-51.7,75.3-78.5c4.3-4.7,4.2-4.7,8.2,0.5c13.8,18,30,33.9,46.4,49.5
		c22.1,21,44.3,41.8,67.3,61.7c0.6,0.5,1.1,1.2,1.9,2.1c-5.2,1-10-0.2-14.7,0.1c-1.9,0.1-1.8-0.8-1.6-2.5
		C421.4,395.7,417.8,390.6,411,389.3z"/>
	<path class="st0" d="M349.1,393.2c-2.7-2-4.2,2-5.7,3.9c-11.5,14.8-40.7,21.2-55.6,3.7c-1.2-1.4-2.8-4-4.6-2.6
		c-1.6,1.3,0.5,3.6,1.6,5.2c0.9,1.4,2.1,2.6,3.2,3.8c6.9,7.2,15.6,9.8,23.3,9.7c14.8,0.9,28.8-6.1,35.6-16.9
		C348.3,397.9,351,394.5,349.1,393.2z"/>
</g>
<g id="walls">
	<path class="st1" d="M66.8,412.8c0.2,5.9,0.5,11.8,0.7,17.7c2,49.2,4.2,98.4,6.1,147.6c1,25.6,4.3,51,4,76.7c0,2.6,0.7,3.5,3.4,3.5
		c7.2-0.1,14.3,0.3,21.5,0.1c25.1-0.8,50.2-1.7,75.3-2.5c0-0.2,0-0.4,0-0.5c19.1,0,38.3,0,57.4,0c3.9,0,5.7,0,6.6,1
		c8.3,0.5,16.4,2,17-0.7c0.6-3.1-2.5-15.7,2.5-17s10.7-1.9,10.7-6.9s5.3-9.8-10.2-9.9S223,621.6,216,621c-1.1-0.1-4.4-0.3-9.2-0.6
		c-25.2,0.2-50.3,0.5-75.4,1c-12,0.2-23.9,1.1-35.8,1.9c-3.3,0.2-5-0.5-4.5-4.1c0.1-1,0.1-2-0.1-3c0-0.3-0.1-0.5-0.1-0.7
		c-0.1-0.4-0.2-0.9-0.2-1.4c-0.3-4.3-0.7-9.4-0.4-13.3c-0.1-0.9,0.2-1.9,0.2-2.7l-1.2-28.9c0-3,0-6,0-9c0-0.2,0-0.3,0-0.5
		c0-0.3,0-0.6,0-0.9c-0.2-5.4-0.5-12.2-0.7-16.6c-0.1-0.4-0.1-0.8-0.1-1.3c-1.9-47.9-3.9-95.8-6.1-143.6c-0.1-1.5,0-2.9,0.3-4.2
		c-0.1-3.9-0.2-6.6-0.1-7.4c0.3-4.1-3.8-3.8-11.3-3c-7.4,0.8-5.2,6-4.6,23.4C66.7,408.5,66.7,410.7,66.8,412.8z"/>
	<path class="st1" d="M574,653.5c3,0.1,3.7-0.6,3.9-3.8c1-20.2-1-40.2-2-60.3c-1.8-36.9-3.4-73.8-5.1-110.8
		c-1.1-23.6-3.2-47.1-5.1-70.7c0-0.6-0.1-1.1,0-1.6c-1.2-10.6-2-21.2-2.4-25.8c-0.8-9.3-3-7.4-11-9.9c-5.1-1.6-5.9,4.3-5.4,14.1
		c0.1,0.5,0.2,1,0.3,1.5c4.6,48.9,6.7,97.9,8.9,146.9c0.5,8.5,0.9,15.1,1,19.2c0.1,0.5,0.1,1.2,0,1.8c0,0.9,0,1.7-0.1,2.2
		c0.3,3.6,0.4,7.3,0.6,10.9l0,0c0.4,8.7,0.9,17.5,1.2,26.2c0.1,0.5,0.2,0.9,0.2,1.4c0,0.3,0.1,0.5,0.1,0.8c0,0.1,0,0.3,0,0.4
		c0.1,2.7,0.4,9.6,0.6,14.1c0.2,1.6,0.3,3.7,0.4,6.5c0.1,3.2-0.8,3.8-3.8,3.8c-21.4-0.1-42.9-0.1-64.3-0.1v-0.1c-21,0-42,0-63,0
		c-0.4,0.1-0.8,0.3-1.4,0.3c-3.7,0.4-16.8,1-20.5,0.4c0,0-0.3,0-0.8-0.1c-0.5,0-1.1-0.1-1.6-0.1c-1-0.1-2.3-0.1-3.8-0.2
		c-0.1,0-0.1,0-0.2,0c-3.3,0.3-6.7,0.4-10.1,0.6c-1.5,0.1-3.2,0.6-4.4-0.1c-3.5,0.6-5.8,1.7-5.2,3.7c1.8,6.1,1.9,11.6,5.9,12.5
		c5.5,1.2,8.8,6.5,7.9,12c-0.7,4.4,8.8,0.6,10.1,5.1c0.1,0.5,0.2,1,0.3,1.5c0.2,1.2,1.4,2.1,2.6,1.8c0.4-0.1,1-0.2,1.8-0.2
		c5.6,0.2,2.4-0.1,10.3,0.1C471.3,658.7,522.5,651.8,574,653.5z"/>
</g>
<path id="door" class="st2" d="M284.8,618.7c22.4-1.1,83-0.1,85.7,0s1.7-3,2.1-9.9c1.3-21.4,1.2-42.9,0.3-64.3
	c-1-22.9-2.1-45.9-2.8-68.8c-0.1-4.7-2-5.5-5.9-5.5c-22.8,0.4-45.6,0.8-68.4,1.1c-4.2,0.1-8.3,0.3-12.5,0c-3.6-0.2-4.5,1.3-4.6,4.6
	c-0.4,10.8,1.1,21.6,1.6,32.4c1.3,30.4,3.5,60.8,2.6,91.2c-0.1,4.7-0.1,9.3,0,14c0.1,1.7,0.1,3.4,0,4.2
	C283,618.4,284.6,618.7,284.8,618.7z M305.6,495.4c6.1-0.1,12.2-0.5,18.3-0.8c0.2,0.1,0.3,0.2,0.5,0.3c-0.1-0.1-0.3-0.2-0.5-0.3
	c0.1,5.6,0.1,11.1,0.2,16.7c0,0.6-0.3,1-1.1,1l-0.6,0.1l0,0c-6.3-0.1-12.6-0.2-18.9-0.3c-0.4-4.4-0.6-8.9-1.1-13.3
	C302,496,303,495.4,305.6,495.4z M303.4,520.2c0-0.8,0-1.6,0-2.4l0,0c6.6-1,13.3-0.2,19.9-0.4h0.1c0,0,0,0,0.1,0c0,0,0,0-0.1,0
	c0.2,5.6,0.4,11.2,0.6,16.7c-6.6,0.1-13.1,0.2-19.7,0.3C304,529.7,303.7,524.9,303.4,520.2z M324.4,556.4L324.4,556.4L324.4,556.4
	c-6.4,0-12.7-0.1-19-0.2c-0.3-3.7-0.7-7.4-1-11.1c0-1.8,0-3.6,0-5.4l0,0c6.3-0.1,12.6-0.2,18.8-0.3
	C325.6,545,324.3,550.8,324.4,556.4z M329.1,497.7c-0.4-2.9,1.2-3.7,3.4-4.2c1.5,0,3,0,4.4,0l0,0c2.6,0.2,5.3,0.4,7.9,0.6
	c1.5,0.1,3.1,0.3,3.1,2.4c0,5.3,1.3,10.5,0.3,15.8l0,0c-5.3,0-10.7,0-16,0c-1.2,0-2.5,0.1-2.6-0.1l0,0
	C328,507.5,329.8,502.6,329.1,497.7z M329.4,517.6c6.6,0,13.2,0,19.7,0c0.3,4.7,0,9.4,1,14.1c0,0.5,0,1.1,0,1.6c0,0.1,0,0.2,0,0.3
	c0-0.1,0-0.2,0-0.3c-1.2,1.7-3,1.1-4.6,1.1c-5.1,0.1-10.2,0.1-15.3,0.1l0,0C329.2,528.9,329.4,523.2,329.4,517.6z M349.1,556.3
	c-3.6,0.1-7.2,0.1-10.8,0.2l0,0c-2.7,0-5.3-0.1-8-0.1l0,0c-0.3-5.6-0.8-11.2,0.1-16.8c6.3,0,12.5-0.1,18.8-0.1c0.3,0.3,0.7,0.6,1,1
	c0.1,2.7,0.4,5.5,0.3,8.2C350.3,551.2,352,554.2,349.1,556.3z"/>
<g class="st3">
	<path class="st4" d="M372.9,544.4c-1-22.9-2.1-45.9-2.8-68.8c-0.1-4.7-2-5.5-5.9-5.5c-22.8,0.4-45.6,0.8-68.4,1.1
		c-4.2,0.1-8.3,0.3-12.5,0c-3.6-0.2-4.5,1.3-4.6,4.6c-0.4,10.8,1.1,21.6,1.6,32.4l8.1-23.6c54.5-1.1,70.6,8.6,70.6,8.6l3.2,55.6
		l-6.4,44.9l-53.5-12.8l-22-72.6c1.3,30.4,3.5,60.8,2.6,91.2c-0.1,4.7-0.1,9.3,0,14c0.1,1.7,0.1,3.4,0,4.2c0,0.7,1.5,1,1.8,1
		c22.4-1.1,83-0.1,85.7,0c2.7,0.1,1.7-3,2.1-9.9C373.9,587.3,373.8,565.8,372.9,544.4z"/>
	<path class="st4" d="M355.8,593.7l6.4-44.9l-3.2-55.6c0,0-16-9.6-70.6-8.6l-8.1,23.6l22,72.6L355.8,593.7z M303.4,520.2
		c0-0.8,0-1.6,0-2.4l0,0c6.6-1,13.3-0.2,19.9-0.4h0.1c0,0,0,0,0.1,0c0,0,0,0-0.1,0c0.2,5.6,0.4,11.2,0.6,16.7
		c-6.6,0.1-13.1,0.2-19.7,0.3C304,529.7,303.7,524.9,303.4,520.2z M350.5,548.7c-0.2,2.6,1.5,5.6-1.4,7.7c-3.6,0.1-7.2,0.1-10.8,0.2
		l0,0c-2.7,0-5.3-0.1-8-0.1l0,0c-0.3-5.6-0.8-11.2,0.1-16.8c6.3,0,12.5-0.1,18.8-0.1c0.3,0.3,0.7,0.6,1,1
		C350.3,543.2,350.6,545.9,350.5,548.7z M350.2,531.6c0,0.5,0,1.1,0,1.6c0,0.1,0,0.2,0,0.3c0-0.1,0-0.2,0-0.3
		c-1.2,1.7-3,1.1-4.6,1.1c-5.1,0.1-10.2,0.1-15.3,0.1l0,0c-1.1-5.6-0.8-11.2-0.8-16.9c6.6,0,13.2,0,19.7,0
		C349.5,522.3,349.1,527,350.2,531.6z M329.1,497.7c-0.4-2.9,1.2-3.7,3.4-4.2c1.5,0,3,0,4.4,0l0,0c2.6,0.2,5.3,0.4,7.9,0.6
		c1.5,0.1,3.1,0.3,3.1,2.4c0,5.3,1.3,10.5,0.3,15.8l0,0c-5.3,0-10.7,0-16,0c-1.2,0-2.5,0.1-2.6-0.1l0,0
		C328,507.5,329.8,502.6,329.1,497.7z M324.4,556.4L324.4,556.4L324.4,556.4c-6.4,0-12.7-0.1-19-0.2c-0.3-3.7-0.7-7.4-1-11.1
		c0-1.8,0-3.6,0-5.4l0,0c6.3-0.1,12.6-0.2,18.8-0.3C325.6,545,324.3,550.8,324.4,556.4z M305.6,495.4c6.1-0.1,12.2-0.5,18.3-0.8
		c0.2,0.1,0.3,0.2,0.5,0.3c-0.1-0.1-0.3-0.2-0.5-0.3c0.1,5.6,0.1,11.1,0.2,16.7c0,0.6-0.3,1-1.1,1l-0.6,0.1l0,0
		c-6.3-0.1-12.6-0.2-18.9-0.3c-0.4-4.4-0.6-8.9-1.1-13.3C302,496,303,495.4,305.6,495.4z"/>
	<path class="st4" d="M330.2,534.4L330.2,534.4c5.1,0,10.3,0,15.4-0.1c1.6,0,3.4,0.5,4.6-1.1c0,0.1,0,0.2,0,0.3c0-0.1,0-0.2,0-0.3
		c0-0.5,0-1.1,0-1.6c-1.1-4.6-0.7-9.4-1-14.1c-6.6,0-13.2,0-19.7,0C329.4,523.2,329.2,528.9,330.2,534.4z"/>
	<path class="st4" d="M330.4,539.6c-0.9,5.6-0.4,11.2-0.1,16.8l0,0c2.7,0,5.3,0.1,8,0.1l0,0c3.6-0.1,7.2-0.1,10.8-0.2
		c2.9-2.1,1.2-5.1,1.4-7.7c0.2-2.7-0.1-5.5-0.3-8.2c-0.3-0.3-0.7-0.6-1-1C342.9,539.5,336.7,539.5,330.4,539.6z"/>
	<path class="st4" d="M323.4,517.4L323.4,517.4L323.4,517.4L323.4,517.4c-6.7,0.2-13.3-0.7-19.9,0.4l0,0c0,0.8,0,1.6,0,2.4
		c0.3,4.7,0.6,9.5,0.9,14.2c6.6-0.1,13.1-0.2,19.7-0.3C323.8,528.6,323.6,523,323.4,517.4z"/>
	<path class="st4" d="M329.7,512.3L329.7,512.3c0.1,0.2,1.3,0.2,2.6,0.1c5.3,0,10.7,0,16,0l0,0c1-5.3-0.2-10.5-0.3-15.8
		c0-2.1-1.6-2.3-3.1-2.4c-2.6-0.2-5.3-0.4-7.9-0.6l0,0c-1.5,0-3,0-4.4,0c-2.2,0.5-3.9,1.3-3.4,4.2
		C329.8,502.6,328,507.5,329.7,512.3z"/>
	<path class="st4" d="M323.3,539.5c-6.3,0.1-12.6,0.2-18.8,0.3l0,0c0,1.8,0,3.6,0,5.4c0.3,3.7,0.7,7.4,1,11.1
		c6.3,0.1,12.6,0.1,18.9,0.2l0,0h0.1C324.3,550.8,325.6,545,323.3,539.5z"/>
	<path class="st4" d="M322.3,512.4L322.3,512.4l0.6-0.1c0.8,0,1.1-0.5,1.1-1c-0.1-5.6-0.1-11.1-0.2-16.7c0.2,0.1,0.3,0.2,0.5,0.3
		c-0.1-0.1-0.3-0.2-0.5-0.3c-6.1,0.3-12.2,0.7-18.3,0.8c-2.5,0-3.6,0.6-3.2,3.4c0.5,4.4,0.8,8.9,1.1,13.3
		C309.7,512.2,316,512.3,322.3,512.4z"/>
</g>
<g id="Layer_6" class="st3">
	<path class="st4" d="M283.9,470.8c0,0,74.7-2.7,80.8-1.2c6.1,1.6,7.2,21.5,7.2,39c0,17.5,1.5,76.9,2,91.5s0.5,8.3,0.5,14.6
		c0,6.3-6.9,3.6-14.5,3.9c-11,0.5-29-1.9-39.5-1.5c-10.5,0.5-25.5-1.5-31.5,0c-6,1.5-5.5-13.6-5.5-24.8s-1-35.1-1-49.7
		s-2.5-38.9-3-50.6C278.9,480.4,275.9,472.2,283.9,470.8z"/>
</g>
<g id="Layer_5">
</g>
<g class="st3">
	<path class="st5" d="M373.6,600c0.3,0,0.7,0,1,0c0.4,0,0.6,0.1,0.7,0.2c0.5,0.5,0.6,1.1,0.7,1.6c0.2,1,0.4,1.9,0.5,2.9
		c0,0.2-0.1,0.5-0.2,0.7s-0.4,0.3-0.7,0.4c0,0-0.1,0-0.4,0c-0.8,0-1.2-0.1-1.3,0.3c-0.1,0.3-0.5,1.2,0.3,1.2c0.7,0,1.2,0,2.1,0
		c0.3,0,0.8,0,1.3-0.1c7.1-0.3,14.2-0.3,21.3-0.7c5.1-0.3,10.2-0.5,15.3-0.6c2-0.1,1.9-0.2,1.9-0.4s0-1.4-0.6-1.4s-0.6,0.2-0.8,0.1
		c-0.4,0-0.7-0.1-0.8-0.2c-0.4-0.3-0.6-0.6-0.6-0.9c-0.2-1.3-0.5-2.5-0.7-3.8c0-0.2-0.1-0.4,0.2-0.6c0.4-0.2,0.9-0.4,1.4-0.4
		c0.6,0,0.8,0,0.9-0.4s0.2-0.9-0.3-0.9c-0.3,0-1,0.1-1.5,0.1c-0.1,0-0.1,0-0.2,0c-4.6,0.1-9.1,0.3-13.7,0.4
		c-1.7,0.1-3.5,0.1-5.2,0.1l0,0c-6.2,0.3-12.4,0.5-18.6,0.8c-0.1,0-0.1,0-0.2,0c-0.9,0-2.1-0.1-2.1,0.3
		C373.3,599.2,373.2,600,373.6,600z M400.9,602.8c-0.7,0.8-1.7,1.4-3.4,1.8c-0.2,0-0.5,0.1-0.9,0.1c0-0.7,0-1.4-0.1-2
		c0-0.2,0-0.3,0.5-0.3c1.3,0,2.7-0.2,4,0C401.3,602.3,401,602.7,400.9,602.8z M395.8,599.3c2.2,0.1,4,0.5,4.9,1.5
		c0.3,0.3,0.3,0.5-0.7,0.5c-1.2,0-2.5,0.2-3.4,0s-0.4-0.9-0.7-1.4C395.8,599.7,395.6,599.5,395.8,599.3z M390.3,600.4
		c0.1-0.1,0.2-0.2,0.3-0.2c0.8-0.4,1.7-0.8,2.8-0.7c0.7,0.1,0.1,0.7,0.3,1c0.2,1,0.2,1-1.9,1.1c-0.1,0-0.2,0-0.3,0
		c-0.7,0-1.7,0.2-2-0.1C389.1,601.1,389.9,600.7,390.3,600.4z M389.8,602.5c0.6,0,1.2,0,1.7,0c2.6-0.1,2.6-0.1,2.8,1.1
		c0,0.1,0,0.2,0.1,0.3c0.2,1.1,0,1.2-2.2,0.7c-1.7-0.3-2.6-1-3.1-1.8C388.9,602.6,389.1,602.4,389.8,602.5z"/>
	<path class="st5" d="M277.1,602.4c0.4,0.1,0.5,0,1.1,0c0.5,0,0.7,0.2,0.9,0.4c0.2,0.4,0.5,0.8,0.6,1.3c0.2,1.1,0.3,2.2,0.5,3.2
		c0,0.2,0,0.4-0.1,0.5c-0.2,0.3-0.3,0.7-1.1,0.7c-0.7,0.1-1.2,0-1.3,0.4c-0.1,0.3-0.2,1.3,0.4,1.3c0.5,0,1.2-0.1,2.1-0.1
		c0.1,0,0.3,0,0.4,0c12.1-0.5,24.2-0.5,36.3-1.1c1.9-0.1,1.6-0.1,1.6-0.4c0-0.4,0.1-0.8-0.3-0.8s-0.2,0.1-0.6,0
		c-0.7,0-0.9-0.3-1.1-0.5c-0.7-0.9-0.6-1.8-0.7-2.7c0-0.7,0-1.3-0.1-2c0-0.5,0.4-1,1.6-1.3h0.1c0.2,0,0.9,0,0.8-0.2s0.2-1-0.2-1
		c-0.3,0-0.5,0-0.8,0c-0.2,0.1-0.5,0-0.7,0c-11.6,0.2-23.2,0.7-34.8,1.2c-0.2,0-0.5,0-0.7,0c-0.5,0-0.9,0.1-1.2,0.1
		c-0.1,0-0.3,0-0.6,0c-1.7,0.1-2.2-0.1-2.2,0.3C276.9,601.9,276.7,602.3,277.1,602.4z M303.4,605.6c-0.7,1-2.1,1.7-4.6,2
		c0-0.3-0.1-0.6,0-0.9c0.1-0.5-0.5-1.1,0.2-1.3c1.2-0.3,2.7-0.2,4.1-0.2C303.8,605.2,303.4,605.4,303.4,605.6z M298.2,602.4
		c0.7-0.2,1.7,0,2.4,0.2c1.2,0.2,2,0.7,2.5,1.2c0.4,0.4,0.4,0.6-0.7,0.5c-0.4,0-0.9,0-1.3,0c-2.3,0-2.3,0-2.7-1
		C298.3,603,297.7,602.6,298.2,602.4z M292.6,603.5c0.9-0.6,2.3-0.9,3.8-1c0.5-0.1,0.6,0,0.6,0.2c-0.1,0.2-0.2,0.4-0.2,0.7
		c-0.1,1.1-0.1,1.1-2.6,1.2c-0.1,0-0.3,0-0.4,0c-0.7,0-1.7,0.2-2-0.1C291.6,604.1,292.2,603.8,292.6,603.5z M292.4,605.5
		c1.2,0,2.3,0,3.5-0.1c0.7,0,0.8,0.1,0.8,0.4c0,0.6,0,1.2,0,1.9c-2.5-0.2-4.2-0.6-5-1.7C291.6,605.7,291.6,605.5,292.4,605.5z"/>
</g>
<path id="stairs" class="st6" d="M412,662.2c0.4-11.8-0.6-12.9-6.2-13.2c-7.2-0.4-9.5,0.5-9.6-2c-0.1-2.6,1.6-12.3-1.9-12.4
	c-5.4-0.1-9.1,0.2-9.2-2.9c-0.1-3.5,0.5-7.6,0.8-10.9c-0.6-0.5-1.1-1.4-1.1-3.2c0-2.2-2.7-1.3-4.2-1.3c-1.3,0-2.4,0-3.3,0
	c-3.3,0.1-7-0.1-12.8,0.1c-8.9,0.3-76.4-0.6-84.9-1c-3.7-0.1-7.3,0-11,0c-2.2,0-4.1,0.1-3.6,3.1c0.1,0.7,0.1,1.2,0,1.6
	c0.3,4.6,0.5,7.8,0.5,9c0,2.4,0.4,4.1-4.9,4.6c-8.3,0.8-7.4,2.6-7.3,7.6c0.2,6.8,2.9,9.4-3.7,9.3c-6.6-0.2-7.6,0.4-7.1,5.9
	c0.2,2.2,0.4,4.1,0.4,6c0,0.1,0,0.2,0,0.2c0.1,1.7,0.4,3.3,0.3,5c-0.3,4,1.2,5.5,5.4,5.6c10.3,0.3,20.6-0.2,30.9-0.3
	c20.6-0.2,41.3-2.1,61.9,0.3c20.1,2.3,40.2,1.4,60.3,2.6c10.2,0.6,10.3,0,10.3-10.4C411.9,664.6,411.9,663.5,412,662.2z M276,630.1
	c0.3-3.1,0.1-5.9,4.7-5.7c30.7,1.4,61.5,0.7,92.2,0.8c6,0,3,5,3.7,7.4c0.8,2.8-2.5,1.6-3.8,1.6c-15.5,0-30.9,0.5-47.9-1.1
	c-13.7,0-29,0-44.3,0C278.3,633.2,275.6,634.2,276,630.1z M268.2,641.1c38.9,0.1,77.8,0.2,116.7,0.2c3.7,0,3.8,1.9,4.1,4.6
	c0.3,3.8-2,3.4-4.4,3.4c-19.3,0-38.6,0-57.8,0v-0.1c-19.3,0-38.6,0-57.8,0c-2.8,0-4.7-0.2-4.8-3.9C264,642,265,641.1,268.2,641.1z
	 M399.6,667.6c-0.3,1.9-2.8,1.1-4.3,1.1c-21.7-1-43.5-0.4-65.2-2.2c-1.3-0.1-2.7-0.2-4-0.2c-22.8-0.7-45.5,0.6-68.3,0.9
	c-2.3,0-5.2,1.1-4.9-3.3c0.2-3.6,0.4-5.8,5.1-5.7c45.2,0.2,90.4,0.2,135.6,0.3c1.9,0,4.7-1.1,5.5,1
	C400,661.9,400.1,664.9,399.6,667.6z"/>
<g>
	<path class="st1" d="M230.8,597.2c-1.1,0-2.4,0.2-3.5-0.2c-1.3,0.3-1.9-0.8-2.4-1.8c-1.8-3.8-1.9-8.1-2.3-12.2
		c-0.6-7.3-1.1-14.5-1.4-21.8c-0.1-1.8,0.4-3.6,0.8-5.4c0.3-1.3,1.3-2.2,2.4-2.6c0-0.2,0.2-0.3,1.4-0.2c2.6,0.3,4.1,0.6,4.4-1.7
		s1.8-9-1-9.3c-2.5-0.3-4.2,0.1-7.2-0.1c-1.2,0.1-2.6,0.2-4.4,0.2c-24.3,1-48.6-0.3-72.8,1.1c-17.4,1-34.9,1.7-52.4,1.4
		c-6.8,0.1-6.5,0.9-6.6,2.7c-0.2,1.8-0.2,10.5,2,10.3c2.1-0.2,1.9-1,2.9-0.4c1.3-0.1,2.3,0.6,2.9,1.7c1.3,2.2,1.9,4.7,2,7.1
		c0.7,9.6,1.3,19.2,1.9,28.8c0.1,1.5,0.3,3-0.8,4.3c-1.3,1.6-3,3.2-5,2.8c-2,0.1-2.8,0.1-3.2,2.8s-0.7,6.7,0.8,7.1
		c0.9,0.2,3.4-0.6,5.3-0.5c0.2,0,0.4,0,0.6,0c15.6,0,31.2-0.4,46.9-0.6c6-0.1,12,0,17.9,0c0-0.1,0-0.1,0-0.2
		c21.2-0.9,42.5-1.7,63.7-2.9c0.2-0.1,0.4-0.1,0.8-0.1c3,0.2,7.2,0.8,7.4-1.8C232,603.4,232.3,597.2,230.8,597.2z M137.8,571.2
		c2.4-5.7,5.8-10.4,11.9-12.5c0.7-0.3,1.6-0.3,3.1-0.6c0,5.3,0,10.2,0,15.2c0,1.3,0,2.5-1.6,2.5c-4.6,0.1-9.3,1.1-13.7-0.4
		C136.5,574.9,137.3,572.6,137.8,571.2z M154.9,598.8c-7.6-1.3-13.5-4.7-16.7-12.1c-1.2-2.6-1.1-4,2.4-3.7c4,0.3,8.6-1,11.7,0.7
		c3.1,1.7,1.4,7,2.3,10.5C155,595.6,155.7,597,154.9,598.8z M173.9,591.6c-0.3,0.6-0.7,1.1-1.2,1.6c-2.6,2.9-5.9,6-9.6,5.1
		c-2.3-0.6-0.2-5-0.9-7.2c-0.5-7.8-0.5-7.8,6.7-7.8c0.3,0,0.7,0,1,0c2.4,0.3,5.9-1.3,6.9,0.8C177.9,586.4,175.3,589.2,173.9,591.6z
		 M175.6,576.1c-1.9-0.3-4-0.3-5.9-0.4c-8.9,0.1-8.9,0.1-9.4-8.7c0-0.8-0.1-1.7-0.1-2.5c-0.6-8.1,0-8.7,7.5-4.9
		c5.7,2.8,8.7,7.9,10.4,13.8C178.7,575.5,178,576.4,175.6,576.1z"/>
	<path class="st1" d="M561.3,596.9c-1.4-0.7-1.7,0-3.7,0.2c-1.7,0.2-2.6-1.5-2.9-3c-0.7-3.2-1.6-6.5-1.8-9.7
		c-0.6-8.1-1-16.2-1.3-24.4c-0.1-1.3,0-2.7,0.4-3.9c0.7-2.2,1.3-5.4,3.9-5c2.3-0.3,4.1-0.1,4.5-2.4s0.7-10-1.2-10.2
		c-1.8-0.2-4,0.3-7.1,0.2c-0.4,0-0.9,0.1-1.4,0.1c-41.4,1.3-82.9-0.3-124.3,1.8c-6.4,0.6-5.5,0.2-5.6,2.9s-0.5,6.1,0.9,6.2
		c1.4,0.2,0.8-0.6,2,0.2c2.6,0.4,3.1,2.3,3.7,4.2c2.2,6.6,2,13.4,2,20.2c0,5,0,10,0.1,14.9c0,4-1.4,7.2-5.4,9.8
		c-0.1,0.1-0.2,0.2-0.4,0.2c-0.8,0.2-3.1,0-2.9,1.5c0.2,1.4-0.9,7.5,0.7,7.8c0.9,0.2,1.8,0.2,2.8,0.1c0.6-0.4,1.6-0.1,2.4-0.1
		c39.7,0.5,79.4-1.1,119.1-2.4c0.8,0,1.7-0.1,2.5-0.1c1.6-0.1,2.9-0.3,4.1-0.3c0.3-0.1,0.9-0.2,2-0.2c5.9-0.2,7.7,1.2,7.7-1.8
		S562.8,597.7,561.3,596.9z M471.7,568.3c2.5-7.6,7.3-12.8,15.8-14.5c0,2.5,0.1,4.5,0,6.4c-0.3,3.4,1.7,8.7-0.7,9.8
		c-4.1,1.8-9.4,1-14.1,1.1C470.2,571.2,471.4,569.4,471.7,568.3z M489,592.7c-2.5,1.7-5.7-0.5-8.3-1.8c-4-2.1-6.6-5.4-8.4-9.5
		c-1.2-2.7-1.2-4.4,2.6-3.8c1.5,0.2,3,0,4.5,0c8,0.2,8,0.2,9.1,8.2C488.7,588.2,490.7,591.6,489,592.7z M508.2,585.9
		c-3.2,4.4-8,6.1-13.2,7.1c-1.6,0.3-2.2-0.4-2-1.9c0.2-1.6,0.6-3.3,0.7-4.9c0.6-8.6,0.6-8.6,8.9-8.6c0.5,0,1-0.1,1.5,0
		c2.3,0.5,5.7-1.5,6.7,1.1C511.9,581.1,509.8,583.8,508.2,585.9z M509.1,570.7c-4-0.1-8-0.1-11.9,0c-2.2,0.1-2.8-0.9-2.8-3
		c0.1-4.6,0-9.2,0-14.2c8.5,1.7,14.4,5.5,16.8,13.8C511.9,569.8,511.8,570.8,509.1,570.7z"/>
</g>
<g id="Layer_3">
	<path class="st7" d="M113.1,449.4l1.1,56.7c0,0,29.9,3.2,38.5,3.2s34.2-4.3,34.2-4.3l2.1-37.4l-3.2-24.6l-32.1,1.1L113.1,449.4z"/>
	<g id="Layer_4">
		<path class="st7" d="M284.6,134.7l1.1,56.7c0,0,29.9,3.2,38.5,3.2s34.2-4.3,34.2-4.3l2.1-37.4l-3.2-24.6l-32.1,1.1L284.6,134.7z"
			/>
	</g>
	<path class="st7" d="M451.3,442.4l1.1,56.7c0,0,29.9,3.2,38.5,3.2s34.2-4.3,34.2-4.3l2.1-37.4L524,436l-32.1,1.1L451.3,442.4z"/>
</g>
<path id="roof_main" class="st8" d="M608.7,369.8C546,297,484.7,223.2,426.2,147c-18.2-23.6-37.3-46.5-54.3-70.9
	C354.2,50.7,334.4,26.9,316.1,2c-1.5-2.1-2.9-3.1-4.9-0.2c-11.7,17.2-25,33.2-38,49.4c-59,73.6-116.4,148.4-173.8,223.3
	c-18.1,23.6-35.9,47.6-56.3,69.3C28.3,359.4,14.8,376.1,1.6,393c-3.2,4.1-1.4,8.5,3.8,9.3c1.1,0.2,2.3,0.1,3.5,0.1
	c18,0,35.9,0,53.9-0.2c0.9,0,1.6,0.1,2.1,0.3c1.7-0.1,3-0.2,3.9-0.4c3.9-0.8,11-8.8,16.1-14.7c0.5-0.7,1-1.4,1.6-2.1
	c23.8-27.8,45.8-57.1,68.8-85.5c10.7-13.2,21.2-26.5,31.7-39.8c1.8-2.3,3.6-3.4,6.6-3.3c10,0.2,19.9,0.1,30.2,0.1
	c-3.7,8.4-0.8,15.6,3.8,22.4c2,2.9,4.2,3.6,7.4,1.2c8.4-6.1,10.3-13.3,5.1-23.4c7.5,0,14.7,0,21.9,0c7.3,0,14.5,0,22.7,0
	c-2.5-4-4.3-6.9-8.8-6.5c-1.8,0.1-3.6-0.5-5.4-0.5c-5,0.1-8.8-1.6-10.7-6.5c-2-5.4-0.9-10.3,3-14.3c7.6-8,17-8.2,24.9-0.5
	c2.1,2,3.8,1.4,5.8,0.4c3.6-1.7,7.2-1.7,10.4,0.7c2.7,2.1,4,4.7,0.4,7.3c-1,0.7-2.1,1.1-1.4,2.6c0.5,1.2,1.4,1.9,2.7,1.9
	c6.3-0.1,12.6-0.1,18.9-0.6c2.1-0.2,4-1.9,1.3-4c-1.9-1.5-3.1-3.1-2.1-5.5c1.1-2.6,3.7-4.2,6-3.4c5.7,1.9,9-0.8,13.3-4.1
	c9.9-7.5,26.8-0.5,29.6,11.5c1.5,6.7-3.8,13.8-10.9,14.4c-2.7,0.2-5.3,0.4-7.2,2.7c-0.7,0.9-2,1.7-1.6,2.9c0.5,1.6,2.2,1.1,3.5,1
	c8.1-0.4,16.3-0.8,24.4-1.2c1,0,2-0.1,3-0.1c5.7-0.2,5.7-0.2,3.1,4.8c-2.8,5.3-0.2,14.1,5.4,18.8c6.8,5.6,9.8,4.8,12.6-3.6
	c2.1-6.2,3.7-12.6-1.4-18.4c-1.5-1.8-0.2-2.2,1.4-2.3c10.5-0.4,20.9-0.8,31.4-1.3c2.6-0.1,3.7,1.8,5.1,3.4
	c23.9,29.5,47.6,59.1,71.7,88.4c9.9,12.1,20.5,23.6,30.9,35.3c1.1,1.2,2,2.4,2.5,3.9c5.9,8.1,11.4,16.5,14.5,17.7
	c2.3,0.9,3.8,1.5,6.1,1.6c1,0,1.6-0.3,2.8-0.3c9.1,0.3,18.3,0.1,27.5,0.1c9.8-0.1,19.6-0.1,29.5-0.3c1.7,0,3.8,0,4.5-2.3
	c0.7-2.2-0.1-3.7-1.5-5.4C622.9,387,616,378.3,608.7,369.8z M238.1,249.5c-2.3,3.2-2.1,6.3-1.3,9.7c1.6,6.5,1.4,12.5-4.5,17.7
	c-3.6-6-4.7-12-3-18.4c0.9-3.2,0.5-6.4-1.6-9.1c-2.1-2.6-2.5-5.3,0.1-7.4c2.5-2,5.7-1.9,8.3,0.1C238.4,244,240.1,246.8,238.1,249.5z
	 M303.5,187c-7.9-3.5-14.3-8.2-15.8-17.6c-0.5-2.9-0.1-4,3-3.7c2.5,0.2,5,0,7.4,0c11.8,0.3,11.8,0.3,12.2,12c0.1,1.7,0,3.3,0,5
	C310.4,190,310.3,190,303.5,187z M308.4,146.5c-0.1,10.4-0.1,10.4-10.4,10.4c-0.7,0-1.3,0-2,0c-9.5,0-9.5,0-5.1-8.8
	c2.9-5.7,6.7-10.6,13-13c3.6-1.3,5.7-1.3,4.8,3.5c-0.4,2.3-0.3,4.6-0.4,6C308.4,145.8,308.4,146.1,308.4,146.5z M319.2,139.4
	c0-5.5,0-5.4,5.4-3.5c8.1,2.8,13.4,8.2,16.1,16.4c0.9,2.9,0.6,4.4-2.9,4c-2.5-0.3-5,0-7.5,0c-10.8,0.7-10.8,0.7-11.1-10.3
	C319.2,143.7,319.2,141.5,319.2,139.4z M341.5,169c-3.6,10.5-11.1,16.5-22,19.7c0-6.9,0.1-13.2,0-19.5c-0.1-2.6,0.8-3.5,3.5-3.4
	c5.3,0.1,10.6-0.1,16-0.3C341.7,165.5,342.4,166.3,341.5,169z M399.8,260.2c1.9,5.9,1.5,11.7-1.7,17.6c-5.4-4.6-7-9.9-6.3-16.3
	c0.5-4.3,1.4-8.5-2.4-12.3c-2-2-0.2-5,1.9-7c2.4-2.2,5.4-2.1,7.8-0.4c2.1,1.5,3.8,4.1,1.8,6.9C398.1,252.4,398.5,256.1,399.8,260.2z
	 M594.7,393.5c-1.9,0-2.8-0.7-3.1-2.9c-0.9-7.8-4.9-12.9-13-14c-2-0.3-2.3-1.3-2.3-3c-0.3-9.1-2-11.5-10.3-14
	c-2.4-0.7-2.9-1.8-2.9-4.2c-0.1-8.7-3.2-12.4-11.6-14.2c-2.2-0.5-3.4-1-3.5-3.7c-0.4-10.3-3.1-13.6-13-16.2
	c-1.9-0.5-1.6-1.3-1.4-2.8c1.4-9.5-4-16.2-13.4-17c-1.6-0.1-3.5,0.5-2.9-2.5c1.6-7.5-2.8-16.1-10.2-19.2c-3-1.3-4.3-2.7-4.5-6.1
	c-0.3-7.7-6.2-14.4-13.9-16c-2.4-0.5-3.2-1.4-3.4-3.9c-0.8-10.7-5-15.7-15.7-18.9c-1.7-0.5-1.9-1.1-1.8-2.7
	c0.2-10.4-3.9-15.6-14-17.1c-2.3-0.3-3.1-0.7-2.8-3.3c1.2-8.7-2.8-14.8-11.6-16.7c-3.5-0.8-4.7-2.1-4.4-5.5
	c0.5-7.7-3.3-12.7-10.6-14.9c-2.8-0.9-3.9-2.1-4.1-5.1c-0.5-7.7-5.4-12-12.3-14c-2.6-0.8-3.3-1.7-3.1-4.4c0.4-6.8-2.9-11.8-9-13.1
	c-3.7-0.8-5-2.7-5.3-6.1c-0.8-8.4-5.1-13.9-13.6-15.6c-1.6-0.3-2.4-1-2.2-2.7c0.9-9-4.6-13.4-12-16.1c-2.7-1-3.4-2.2-3.6-4.9
	c-0.6-7.3-4.5-11.8-11.8-13.5c-2.5-0.6-2.7-1.5-2.7-3.7c0.3-8-2-11.4-9.9-13.9c-2.4-0.8-2.9-1.8-2.9-4.2c0.1-8.6-2.3-11.9-10.6-14.5
	c-2.2-0.7-2.8-1.8-2.6-3.9c0.4-3.4-0.7-6.6-2.3-9.6c-1.2-2.4-2.5-2.9-4.2-0.3c-2,2.9-2.8,6.1-2.4,9.4c0.3,2.5-0.3,3.8-3,4.5
	c-7.4,2.1-10.2,6-9.9,14c0.1,2.9-0.7,4-3.5,4.8c-6.9,2-9.7,6.1-9.3,13.3c0.1,2.3,0.1,3.5-2.7,4.1c-7.2,1.5-11.1,6.2-11.7,13.6
	c-0.2,2.4-0.6,3.8-3.2,4.7c-7.5,2.7-13.2,7.2-12.3,16.4c0.2,1.7-0.8,2.3-2.3,2.6c-8.4,1.8-12.7,7.3-13.4,15.7
	c-0.3,3.4-1.8,5.2-5.4,6c-5.9,1.3-9.3,6.4-8.9,12.7c0.2,2.7-0.2,4-3.2,4.8c-7.2,2-11.8,6.7-12.3,14.5c-0.1,2.3-0.8,3.4-3.2,4.1
	c-8,2.4-12.1,7.8-11.4,16.4c0.2,2.4-0.6,3.5-3,4.1c-10.7,2.8-13.4,6.6-12.8,17.6c0.1,2.1-0.7,2.3-2.5,2.6
	c-10.7,1.8-14.5,6.3-14.3,17.2c0,2.3-0.9,2.3-2.5,2.6c-9,2.2-14.5,8.7-15,17.9c-0.1,2.5-0.3,4.2-3.5,4.8
	c-7.3,1.4-13.4,8.2-13.8,15.6c-0.2,3.4-1.2,5.2-4.6,6.6c-7.5,3.2-12,12.3-10.6,20.2c-10.4,0.8-17.1,8.8-15.7,19
	c0.3,2.3-0.9,2-2.1,2.2c-7.9,1.7-12.4,6.8-12.4,14.9c0,3.2-0.6,4.7-4.1,5.3c-7.6,1.3-11,5.7-11,13.7c0,2.9-0.8,4-3.6,4.7
	c-7.1,1.8-10,5.7-9.8,12.9c0,2.3,0,3.6-2.8,4c-7.4,1.1-11.4,5.9-12.3,13.1c-0.4,3.1-1.5,3.9-4.3,3.8c-4.3-0.1-8.6,0-13.4,0
	c101-124,195.8-252.2,294.6-377.6c98.7,125.2,193.5,253.4,294.5,377.6C604.1,393.5,599.4,393.5,594.7,393.5z"/>
<g id="windows">
	<path class="st9" d="M540.9,437c0-3.2-1.3-3.9-4.2-3.7c-6.3,0.4-12.6,0.6-18.9,0.7c-26.1,0.2-52.2,0.4-78.3,0.6
		c-6.6,0-6.5,0.1-6.5,6.5c-0.2,19.6,0.6,39.2,1.1,58.8c0.2,6.4,0.2,6.7,6.8,6.3c16-1,31.9-0.5,45.2-0.7c19.4-0.6,36.2-1.2,53-1.6
		c3.2-0.1,3.8-1.2,3.8-4.1C543.1,478.8,540.8,458,540.9,437z M460,449.3c-0.4-4,0.8-5.7,5.1-5.5c4.6,0.2,9.3-0.2,13.9-0.3
		c1,0,3.1-0.8,2.5,1.6c-1.5,6.1-0.3,12.2,0.2,18.3c0.3,3.8-0.3,5.7-4.5,5.1c-2.1-0.3-4.3-0.1-6.5-0.1c-9.8-0.4-9.8-0.4-10.6-10.2
		C460,455.3,460.3,452.3,460,449.3z M478.1,498.3c-4,0.2-8,0.3-11.9,0.8c-3,0.5-3.8-0.6-3.7-3.4c0.1-3,0-6,0-9
		c-1.1-12.4-1.1-12.4,11.5-12.3c8.2,0.1,8.2,0.1,9.1,8.2c0.3,3,0.6,5.9,0.8,8.9C484.5,498.1,484.4,498,478.1,498.3z M488.2,446.4
		c-0.7-2.1,0-3,2.3-3.1c5.7,0,11.3-0.2,17-0.4c2.2-0.1,3.4,0.4,3.3,2.9c0,3.3,0.3,6.6,0.5,9c-0.2,13.8-0.2,13.8-13.2,13.8
		c-8.2,0-8.1,0-8.4-8C489.5,455.9,489.8,451,488.2,446.4z M509.4,498c-5.6,0.1-11.3,0.3-16.9,0.6c-2,0.1-2.6-0.8-2.5-2.7
		c0.1-3.2,0-6.3,0-9.5c-0.2-11.9-0.2-11.9,11.7-11.8c9.2,0.1,9.2,0.1,9.7,8.9c0.2,3.8,0.4,7.6,0.7,11.4
		C512.3,497.1,511.5,497.9,509.4,498z"/>
	<path class="st9" d="M205.4,445.3c0-4.6-1.6-5.8-5.8-5.6c-12.4,0.8-24.9,1.1-37.4,0.9c-20.8-1.1-41.5,0.6-62.3,1.6
		c-2.5,0.1-3.5,0.6-3.5,3.4c-0.1,20.9-0.4,41.9,1.2,62.8c0.2,3.2,1.3,4.5,4.9,4.5c32.9,0.1,65.8-0.8,98.7-1.2
		c4.2-0.1,5.4-1.3,5.2-5.4C205.8,485.9,205.4,465.6,205.4,445.3z M127.5,456.9c-0.5-8.8-0.5-8.8,8-9.2c0.5,0,1,0,1.5-0.1
		c12.3-0.4,12.3-0.4,12.4,11.7c0.1,12.2,0.1,12.2-12,12.1c-8.9-0.1-8.9-0.1-9.6-9.1C127.7,460.5,127.6,458.7,127.5,456.9z
		 M148.3,502.8c-5.5,0-11,0.1-16.5,0.4c-2.6,0.1-3.5-0.7-3.5-3.3c0.1-3.1-0.3-6.3-0.5-8.5c0.1-13.9,0.1-13.9,13.1-14
		c8.3,0,8.2,0,8.5,8.3c0.2,4.6-0.1,9.3,1.4,13.8C151.8,502,150.7,502.7,148.3,502.8z M155.3,454.9c-0.5-7-0.4-7,6.8-7.2
		c0.5,0,1-0.1,1.5,0c4.2,0.4,9.7-2.6,12.3,0.1c2.2,2.3,0.9,7.9,1.2,12c0.7,11.9,0.7,11.9-11.3,11.8c-8.7-0.1-8.7-0.1-9.7-8.7
		C155.7,460.2,155.5,457.6,155.3,454.9z M174.7,502.1l-7,0.3c-3.1,0-6.9,1.1-9.2-0.3c-2-1.2,0.3-5.2-0.1-8
		c-0.6-4.1-0.5-8.3-0.9-12.4c-0.3-2.8,0.1-4.3,3.5-4.1c5,0.3,9.9,0.2,14.9,0.1c2.1,0,2.4,0.9,2.6,2.7c0.4,5.8,0.8,11.6,0.9,17.4
		C179.3,501.2,178,502.3,174.7,502.1z"/>
</g>
<g id="Layer_2">
</g>
<g class="st3">
	<path class="st5" d="M367.8,481.2c0.3,0,0.7,0,1,0c0.4-0.1,0.6,0.1,0.7,0.2c0.5,0.5,0.6,1.1,0.7,1.7c0.2,1,0.4,2.1,0.5,3.1
		c0,0.3-0.1,0.5-0.2,0.8c-0.1,0.2-0.4,0.3-0.7,0.4c0,0-0.1,0-0.4,0c-0.8,0-1.2-0.1-1.3,0.3c-0.1,0.3-0.5,1.3,0.3,1.3
		c0.7,0,1.2,0,2.1,0c0.3,0,0.8,0,1.3-0.1c7.1-0.3,14.2-0.3,21.3-0.7c5.1-0.3,10.2-0.5,15.3-0.6c2-0.1,1.9-0.2,1.9-0.4
		c0-0.3,0-1.5-0.6-1.5s-0.6,0.2-0.8,0.1c-0.4,0-0.7-0.1-0.8-0.2c-0.4-0.3-0.6-0.7-0.6-1c-0.2-1.4-0.5-2.8-0.7-4.1
		c0-0.2-0.1-0.4,0.2-0.6c0.4-0.2,0.9-0.5,1.4-0.4c0.6,0,0.8,0,0.9-0.4s0.2-1-0.3-1c-0.3,0-1,0.1-1.5,0.1c-0.1,0-0.1,0-0.2,0
		c-4.6,0.1-9.1,0.3-13.7,0.4c-1.7,0.1-3.5,0.1-5.2,0.1l0,0c-6.2,0.3-12.4,0.5-18.6,0.9c-0.1,0-0.1,0-0.2,0c-0.9,0-2.1-0.1-2.1,0.3
		C367.5,480.3,367.4,481.2,367.8,481.2z M395.1,484.3c-0.7,0.8-1.7,1.5-3.4,1.9c-0.2,0-0.5,0.1-0.9,0.1c0-0.8,0-1.5-0.1-2.2
		c0-0.2,0-0.4,0.5-0.4c1.3-0.1,2.7-0.2,4,0C395.4,483.7,395.2,484.1,395.1,484.3z M390,480.4c2.2,0.1,4,0.6,4.9,1.6
		c0.3,0.4,0.3,0.6-0.7,0.6c-1.2,0-2.5,0.2-3.4,0s-0.4-1-0.7-1.5C390,480.9,389.8,480.7,390,480.4z M384.5,481.6
		c0.1-0.1,0.2-0.2,0.3-0.2c0.8-0.4,1.7-0.9,2.8-0.8c0.7,0.1,0.1,0.7,0.3,1c0.2,1.1,0.2,1.1-1.9,1.2c-0.1,0-0.2,0-0.3,0
		c-0.7,0-1.7,0.2-2-0.1C383.3,482.3,384,481.9,384.5,481.6z M384,483.8c0.6,0,1.2,0,1.7,0c2.6-0.1,2.6-0.1,2.8,1.2
		c0,0.1,0,0.2,0.1,0.4c0.2,1.2,0,1.2-2.2,0.8c-1.7-0.4-2.6-1.1-3.1-1.9C383.1,483.9,383.3,483.8,384,483.8z"/>
	<path class="st5" d="M271.3,483.5c0.4,0.1,0.5,0,1.1,0c0.5,0,0.8,0.2,0.9,0.4c0.2,0.5,0.5,0.9,0.6,1.4c0.2,1.2,0.3,2.3,0.5,3.5
		c0,0.2,0,0.4-0.1,0.6c-0.2,0.3-0.3,0.8-1.1,0.8c-0.7,0.1-1.2,0-1.3,0.4s-0.2,1.4,0.4,1.5c0.5,0,1.2-0.1,2.1-0.1c0.1,0,0.3,0,0.4,0
		c12.1-0.5,24.2-0.5,36.3-1.1c1.9-0.1,1.6-0.1,1.6-0.5s0.1-0.9-0.3-0.9s-0.2,0.1-0.6,0c-0.7,0-0.9-0.3-1.1-0.6
		c-0.7-0.9-0.6-1.9-0.7-2.9c0-0.7,0-1.4-0.1-2.2c0-0.6,0.4-1,1.5-1.4h0.1c0.2,0,0.9,0,0.8-0.2s0.2-1.1-0.2-1.1c-0.3,0-0.5,0-0.8,0
		c-0.2,0.1-0.5,0-0.7,0c-11.6,0.2-23.2,0.7-34.8,1.2c-0.2,0-0.5,0-0.7,0c-0.5,0-0.9,0.1-1.2,0.1c-0.1,0-0.3,0-0.6,0
		c-1.7,0.1-2.2-0.1-2.2,0.3C271.1,483,270.9,483.4,271.3,483.5z M297.5,487c-0.7,1.1-2.1,1.9-4.6,2.2c0-0.4-0.1-0.6,0-0.9
		c0.1-0.5-0.5-1.2,0.2-1.4c1.2-0.3,2.7-0.2,4.1-0.3C298,486.6,297.6,486.9,297.5,487z M292.4,483.6c0.7-0.3,1.7,0,2.4,0.2
		c1.2,0.3,2,0.7,2.5,1.3c0.4,0.4,0.4,0.6-0.7,0.6c-0.4,0-0.9,0-1.3,0c-2.3,0-2.3,0-2.7-1.1C292.5,484.3,291.9,483.8,292.4,483.6z
		 M286.8,484.7c0.9-0.7,2.3-0.9,3.8-1.1c0.5-0.1,0.6,0,0.6,0.3c-0.1,0.2-0.2,0.5-0.2,0.7c-0.1,1.2-0.1,1.2-2.6,1.3
		c-0.1,0-0.3,0-0.4,0c-0.7-0.1-1.7,0.3-2-0.1C285.8,485.5,286.4,485.1,286.8,484.7z M286.6,486.9c1.2,0,2.3,0,3.5-0.1
		c0.7,0,0.8,0.1,0.8,0.4c0,0.7,0,1.3,0,2c-2.5-0.2-4.2-0.7-5-1.9C285.8,487.1,285.8,487,286.6,486.9z"/>
</g>
</svg>
